<?xml version="1.0" encoding="UTF-8" standalone="no"?>
<!-- Created with Inkscape (http://www.inkscape.org/) -->

<svg
   version="1.1"
   id="svg909"
   width="500"
   height="500"
   viewBox="0 0 500 500"
   sodipodi:docname="LogoToroNuevo.svg"
   inkscape:version="1.1.1 (3bf5ae0d25, 2021-09-20, custom)"
   inkscape:export-filename="/home/brayanch/Profesional/kosmic-front/src/media/LogoToro.png"
   inkscape:export-xdpi="48.950413"
   inkscape:export-ydpi="48.950413"
   xmlns:inkscape="http://www.inkscape.org/namespaces/inkscape"
   xmlns:sodipodi="http://sodipodi.sourceforge.net/DTD/sodipodi-0.dtd"
   xmlns="http://www.w3.org/2000/svg"
   xmlns:svg="http://www.w3.org/2000/svg">
  <defs
     id="defs913">
    <inkscape:path-effect
       effect="mirror_symmetry"
       start_point="401.06015,87.236328"
       end_point="401.06015,352.05346"
       center_point="401.06015,219.64489"
       id="path-effect10874"
       is_visible="true"
       lpeversion="1.1"
       mode="vertical"
       discard_orig_path="false"
       fuse_paths="false"
       oposite_fuse="false"
       split_items="true"
       split_open="false" />
  </defs>
  <sodipodi:namedview
     id="namedview911"
     pagecolor="#505050"
     bordercolor="#ffffff"
     borderopacity="1"
     inkscape:pageshadow="0"
     inkscape:pageopacity="0"
     inkscape:pagecheckerboard="1"
     showgrid="false"
     inkscape:zoom="0.49780317"
     inkscape:cx="179.78993"
     inkscape:cy="182.80317"
     inkscape:window-width="926"
     inkscape:window-height="974"
     inkscape:window-x="970"
     inkscape:window-y="82"
     inkscape:window-maximized="0"
     inkscape:current-layer="layer1" />
  <g
     inkscape:groupmode="layer"
     id="layer1"
     inkscape:label="logo Vector"
     style="opacity:1">
    <path
       id="path2406"
       style="fill:#ffffff;fill-opacity:1;stroke:none;stroke-width:1.61029px;stroke-linecap:butt;stroke-linejoin:miter;stroke-opacity:1"
       d="M 61.237645,42.305003 C 50.30198,47.994577 40.34874,53.921895 24.961817,68.804971 7.7532474,87.512232 -4.1179853,117.04532 7.5694827,144.57311 c 7.6933723,14.87145 13.6801373,19.00877 19.5729123,22.5668 10.317033,6.12678 23.236162,10.58808 42.418629,11.03068 12.660499,-0.38511 42.508446,-1.39192 51.704476,-6.0169 l -0.39893,14.39255 c -9.07766,0.1215 -13.53255,-1.66379 -27.232045,-0.10457 -18.145372,2.61909 -45.587083,25.34563 -52.918712,44.90315 -2.227973,7.91395 1.818209,16.1357 10.577545,15.06455 14.411086,-1.76228 31.221721,5.45103 40.679589,5.32169 22.865573,-1.75104 23.018623,-25.70461 30.051693,-43.75478 -3.43068,23.72354 -3.00416,47.67861 2.27547,71.92406 6.2844,17.99443 22.33547,35.9893 40.1664,53.98372 13.74446,13.33133 8.75904,11.78052 20.63987,27.14843 -6.55001,3.24922 -14.53453,33.49067 -9.51243,42.22101 5.0221,8.73033 11.41102,34.33715 27.06549,39.26531 1.43947,6.97229 4.86583,13.2325 11.03266,18.37995 3.37582,1.33364 6.68826,2.55271 9.95784,3.37932 3.41757,0.68306 50.92212,0.73347 54.44375,0 3.26958,-0.82661 9.514,-2.04568 12.88981,-3.37932 6.16684,-5.14745 9.5932,-11.40766 11.03265,-18.37995 15.65448,-4.92816 22.04341,-30.53498 27.06549,-39.26531 5.02211,-8.73034 -2.96241,-38.97179 -9.51242,-42.22101 11.88083,-15.36791 2.21982,-13.8171 15.96428,-27.14843 17.83093,-17.99442 33.882,-35.98929 40.1664,-53.98372 5.27963,-24.24545 5.70615,-48.20052 2.27546,-71.92406 7.03308,18.05017 9.12235,53.12825 30.0517,43.75478 16.25063,-7.27804 25.28656,-7.24485 40.67958,-5.32169 8.75651,1.09401 13.77134,-3.42818 11.54335,-11.34213 -7.33161,-19.55752 -35.73914,-46.00648 -53.88451,-48.62557 -13.69949,-1.55922 -18.15439,0.22607 -27.23205,0.10457 l -0.39892,-14.39255 c 9.19603,4.62498 39.04397,5.63179 51.70447,6.0169 19.18247,-0.4426 32.10159,-4.9039 42.41863,-11.03068 5.89278,-3.55803 11.87953,-7.69535 19.5729,-22.5668 11.68747,-27.52779 -0.18375,-57.060878 -17.39232,-75.768139 -15.38692,-14.883076 -25.34017,-20.810394 -36.27583,-26.499968 10.54602,22.80002 31.93679,46.68338 24.77647,70.072707 -4.84938,15.84059 -17.90738,21.7948 -31.78104,20.13447 -25.20817,-1.14349 -38.89188,-9.41908 -59.10218,-18.10302 C 339.57376,88.495921 292.30811,77.430814 250.27793,76.801052 208.24776,77.430814 160.42624,88.495921 127.3444,114.40916 107.13409,123.0931 93.450384,131.36869 68.242218,132.51218 54.36856,134.17251 41.310545,128.2183 36.461169,112.37771 29.300851,88.988383 50.691619,65.105023 61.237645,42.305003 Z M 144.00483,189.03279 c 1.44248,10.08637 9.44301,12.50121 16.25158,15.67457 15.69232,7.31396 27.72486,11.86868 35.91755,20.7232 6.79477,7.34364 4.61135,13.98775 6.23383,18.66462 -1.29674,-2.97351 -2.68327,-4.13666 -10.06048,-9.64023 -39.90635,18.46935 -37.79771,-10.11899 -37.55978,-23.43439 -7.32036,-5.49412 -12.20254,-14.60645 -10.7827,-21.98777 z m 211.93583,0 c 1.41983,7.38132 -3.40782,16.49365 -10.72819,21.98777 0.23794,13.3154 2.34657,41.90374 -37.55977,23.43439 -7.37721,5.50357 -8.76374,6.66672 -10.06048,9.64023 1.62247,-4.67687 -0.56094,-11.32098 6.23382,-18.66462 8.1927,-8.85452 20.22524,-13.40924 35.91756,-20.7232 6.80857,-3.17336 14.75458,-5.5882 16.19706,-15.67457 z M 189.86841,382.50901 c 0.38047,-0.009 0.77802,0.0139 1.19293,0.0736 14.80588,2.12963 19.66824,6.26168 24.10061,15.14577 -5.89924,-0.39536 -12.85539,4.2195 -21.6586,0.2964 -6.68667,-3.3189 -12.01631,-11.93121 -3.63494,-15.51576 z m 124.93879,0 c 8.38136,3.58455 3.05172,12.19686 -3.63495,15.51576 -8.8032,3.9231 -15.75936,-0.69176 -21.6586,-0.2964 4.43238,-8.88409 9.29472,-13.01614 24.10061,-15.14577 0.41491,-0.0597 0.81246,-0.0828 1.19294,-0.0736 z m -23.54677,54.08964 c -1.77602,4.06347 -3.72911,10.73453 -7.57392,12.60683 -11.05893,3.42156 -46.43177,7.65893 -62.69742,0 -3.8448,-1.8723 -5.7979,-8.54336 -7.57393,-12.60683 16.91646,7.45483 57.31897,8.35931 77.84527,0 z"
       sodipodi:nodetypes="cccccccccscccccsccccccsccccsscccccccccscccccsccssccccccccsscccccccccscccccccc" />
  </g>
</svg>
