<?xml version="1.0" encoding="UTF-8" standalone="no"?>
<!-- Created with Inkscape (http://www.inkscape.org/) -->

<svg
   version="1.1"
   id="svg909"
   width="500"
   height="500"
   viewBox="0 0 500 500"
   sodipodi:docname="LogoMaterial.svg"
   inkscape:version="1.1.1 (3bf5ae0d25, 2021-09-20, custom)"
   inkscape:export-filename="/home/brayanch/Profesional/kosmic-front/src/media/LogoToro.png"
   inkscape:export-xdpi="48.950413"
   inkscape:export-ydpi="48.950413"
   xmlns:inkscape="http://www.inkscape.org/namespaces/inkscape"
   xmlns:sodipodi="http://sodipodi.sourceforge.net/DTD/sodipodi-0.dtd"
   xmlns="http://www.w3.org/2000/svg"
   xmlns:svg="http://www.w3.org/2000/svg">
  <defs
     id="defs913">
    <inkscape:path-effect
       effect="spiro"
       id="path-effect43668"
       is_visible="true"
       lpeversion="1" />
    <inkscape:path-effect
       effect="simplify"
       id="path-effect43666"
       is_visible="true"
       lpeversion="1"
       steps="1"
       threshold="0.00283019"
       smooth_angles="360"
       helper_size="0"
       simplify_individual_paths="false"
       simplify_just_coalesce="false" />
    <inkscape:path-effect
       effect="spiro"
       id="path-effect43662"
       is_visible="true"
       lpeversion="1" />
    <inkscape:path-effect
       effect="simplify"
       id="path-effect43660"
       is_visible="true"
       lpeversion="1"
       steps="1"
       threshold="0.00283019"
       smooth_angles="360"
       helper_size="0"
       simplify_individual_paths="false"
       simplify_just_coalesce="false" />
    <inkscape:path-effect
       effect="spiro"
       id="path-effect43656"
       is_visible="true"
       lpeversion="1" />
    <inkscape:path-effect
       effect="simplify"
       id="path-effect43654"
       is_visible="true"
       lpeversion="1"
       steps="1"
       threshold="0.00283019"
       smooth_angles="360"
       helper_size="0"
       simplify_individual_paths="false"
       simplify_just_coalesce="false" />
    <inkscape:path-effect
       effect="spiro"
       id="path-effect43650"
       is_visible="true"
       lpeversion="1" />
    <inkscape:path-effect
       effect="simplify"
       id="path-effect43648"
       is_visible="true"
       lpeversion="1"
       steps="1"
       threshold="0.00283019"
       smooth_angles="360"
       helper_size="0"
       simplify_individual_paths="false"
       simplify_just_coalesce="false" />
    <inkscape:path-effect
       effect="spiro"
       id="path-effect43644"
       is_visible="true"
       lpeversion="1" />
    <inkscape:path-effect
       effect="simplify"
       id="path-effect43642"
       is_visible="true"
       lpeversion="1"
       steps="1"
       threshold="0.00283019"
       smooth_angles="360"
       helper_size="0"
       simplify_individual_paths="false"
       simplify_just_coalesce="false" />
    <inkscape:path-effect
       effect="spiro"
       id="path-effect43525"
       is_visible="true"
       lpeversion="1" />
    <inkscape:path-effect
       effect="simplify"
       id="path-effect43523"
       is_visible="true"
       lpeversion="1"
       steps="1"
       threshold="0.00283019"
       smooth_angles="360"
       helper_size="0"
       simplify_individual_paths="false"
       simplify_just_coalesce="false" />
    <inkscape:path-effect
       effect="spiro"
       id="path-effect43519"
       is_visible="true"
       lpeversion="1" />
    <inkscape:path-effect
       effect="simplify"
       id="path-effect43517"
       is_visible="true"
       lpeversion="1"
       steps="1"
       threshold="0.000736842"
       smooth_angles="360"
       helper_size="0"
       simplify_individual_paths="false"
       simplify_just_coalesce="false" />
    <inkscape:path-effect
       effect="simplify"
       id="path-effect43511"
       is_visible="true"
       lpeversion="1"
       steps="1"
       threshold="0.000408163"
       smooth_angles="360"
       helper_size="0"
       simplify_individual_paths="false"
       simplify_just_coalesce="false" />
    <inkscape:path-effect
       effect="simplify"
       id="path-effect43505"
       is_visible="true"
       lpeversion="1"
       steps="1"
       threshold="0.000408163"
       smooth_angles="360"
       helper_size="0"
       simplify_individual_paths="false"
       simplify_just_coalesce="false" />
    <inkscape:path-effect
       effect="simplify"
       id="path-effect43499"
       is_visible="true"
       lpeversion="1"
       steps="1"
       threshold="0.000408163"
       smooth_angles="360"
       helper_size="0"
       simplify_individual_paths="false"
       simplify_just_coalesce="false" />
    <inkscape:path-effect
       effect="spiro"
       id="path-effect43329"
       is_visible="true"
       lpeversion="1" />
    <inkscape:path-effect
       effect="mirror_symmetry"
       start_point="401.06015,87.236328"
       end_point="401.06015,352.05346"
       center_point="401.06015,219.64489"
       id="path-effect10874"
       is_visible="true"
       lpeversion="1.1"
       mode="vertical"
       discard_orig_path="false"
       fuse_paths="false"
       oposite_fuse="false"
       split_items="true"
       split_open="false" />
    <filter
       inkscape:collect="always"
       style="color-interpolation-filters:sRGB"
       id="filter108386"
       x="-0.1381853"
       y="-0.88873414"
       width="1.2763706"
       height="2.7774683">
      <feGaussianBlur
         inkscape:collect="always"
         stdDeviation="20.274599"
         id="feGaussianBlur108388" />
    </filter>
    <filter
       inkscape:collect="always"
       style="color-interpolation-filters:sRGB"
       id="filter119685"
       x="-0.18134075"
       y="-0.83961304"
       width="1.3626815"
       height="2.6792261">
      <feGaussianBlur
         inkscape:collect="always"
         stdDeviation="38.817074"
         id="feGaussianBlur119687" />
    </filter>
    <filter
       inkscape:collect="always"
       style="color-interpolation-filters:sRGB"
       id="filter127662"
       x="-0.23832666"
       y="-0.59568569"
       width="1.4766533"
       height="2.1913714">
      <feGaussianBlur
         inkscape:collect="always"
         stdDeviation="32.722591"
         id="feGaussianBlur127664" />
    </filter>
    <filter
       inkscape:collect="always"
       style="color-interpolation-filters:sRGB"
       id="filter127848"
       x="-0.3471279"
       y="-0.61294428"
       width="1.6942558"
       height="2.2258886">
      <feGaussianBlur
         inkscape:collect="always"
         stdDeviation="26.643648"
         id="feGaussianBlur127850" />
    </filter>
    <filter
       inkscape:collect="always"
       style="color-interpolation-filters:sRGB"
       id="filter128016"
       x="-0.21642334"
       y="-0.39901147"
       width="1.4328467"
       height="1.7980229">
      <feGaussianBlur
         inkscape:collect="always"
         stdDeviation="25.129801"
         id="feGaussianBlur128018" />
    </filter>
    <filter
       inkscape:collect="always"
       style="color-interpolation-filters:sRGB"
       id="filter128328"
       x="-0.2973553"
       y="-0.49459656"
       width="1.5947106"
       height="1.9891931">
      <feGaussianBlur
         inkscape:collect="always"
         stdDeviation="34.260713"
         id="feGaussianBlur128330" />
    </filter>
    <filter
       inkscape:collect="always"
       style="color-interpolation-filters:sRGB"
       id="filter128496"
       x="-0.34640898"
       y="-0.51239066"
       width="1.692818"
       height="2.0247813">
      <feGaussianBlur
         inkscape:collect="always"
         stdDeviation="33.927952"
         id="feGaussianBlur128498" />
    </filter>
    <filter
       inkscape:collect="always"
       style="color-interpolation-filters:sRGB"
       id="filter128898"
       x="-0.23979122"
       y="-0.55413198"
       width="1.4795824"
       height="2.108264">
      <feGaussianBlur
         inkscape:collect="always"
         stdDeviation="41.576498"
         id="feGaussianBlur128900" />
    </filter>
    <filter
       inkscape:collect="always"
       style="color-interpolation-filters:sRGB"
       id="filter128904"
       x="-0.61977252"
       y="-0.70926256"
       width="2.239545"
       height="2.4185251">
      <feGaussianBlur
         inkscape:collect="always"
         stdDeviation="8.1148439"
         id="feGaussianBlur128906" />
    </filter>
    <filter
       inkscape:collect="always"
       style="color-interpolation-filters:sRGB"
       id="filter129090"
       x="-0.65657764"
       y="-0.42231442"
       width="2.3131553"
       height="1.8446288">
      <feGaussianBlur
         inkscape:collect="always"
         stdDeviation="18.106111"
         id="feGaussianBlur129092" />
    </filter>
    <filter
       inkscape:collect="always"
       style="color-interpolation-filters:sRGB"
       id="filter129420"
       x="-0.18497996"
       y="-0.53005549"
       width="1.3699599"
       height="2.060111">
      <feGaussianBlur
         inkscape:collect="always"
         stdDeviation="33.049363"
         id="feGaussianBlur129422" />
    </filter>
    <filter
       inkscape:collect="always"
       style="color-interpolation-filters:sRGB"
       id="filter129606"
       x="-0.43565196"
       y="-0.5760609"
       width="1.8713039"
       height="2.1521218">
      <feGaussianBlur
         inkscape:collect="always"
         stdDeviation="15.418349"
         id="feGaussianBlur129608" />
    </filter>
    <filter
       inkscape:collect="always"
       style="color-interpolation-filters:sRGB"
       id="filter129792"
       x="-0.28956761"
       y="-0.35440968"
       width="1.5791352"
       height="1.7088194">
      <feGaussianBlur
         inkscape:collect="always"
         stdDeviation="25.091618"
         id="feGaussianBlur129794" />
    </filter>
    <filter
       inkscape:collect="always"
       style="color-interpolation-filters:sRGB"
       id="filter129798"
       x="-0.26105126"
       y="-0.73426796"
       width="1.5221025"
       height="2.4685359">
      <feGaussianBlur
         inkscape:collect="always"
         stdDeviation="33.25897"
         id="feGaussianBlur129800" />
    </filter>
    <clipPath
       clipPathUnits="userSpaceOnUse"
       id="clipPath132220">
      <path
         id="path132222"
         style="fill:#000200;fill-opacity:1;stroke:none;stroke-width:1.61029px;stroke-linecap:butt;stroke-linejoin:miter;stroke-opacity:1"
         d="m 63.618416,66.079285 c -10.93567,5.689574 -20.88891,11.616893 -36.27583,26.49997 -17.20857,18.707265 -29.0797995,48.240345 -17.3923295,75.768135 7.6933695,14.87144 13.6801295,19.00876 19.5729095,22.56679 10.31703,6.12678 23.23616,10.58808 42.41863,11.03068 12.6605,-0.38511 42.508444,-1.39192 51.704474,-6.0169 l -0.39893,14.39255 c -9.07766,0.1215 -13.53255,-1.66379 -27.232044,-0.10457 -18.14537,2.61909 -45.58708,25.34563 -52.91871,44.90315 -2.22798,7.91395 1.81821,16.1357 10.57754,15.06455 14.41109,-1.76228 31.22172,5.45103 40.67959,5.32169 22.865574,-1.75104 23.018624,-25.70461 30.051694,-43.75478 -3.43068,23.72354 -3.00416,47.67861 2.27547,71.92406 6.2844,17.99443 22.33547,35.9893 40.1664,53.98372 13.74446,13.33133 8.75904,11.78052 20.63987,27.14843 -6.55001,3.24922 -14.53453,33.49067 -9.51243,42.22101 5.0221,8.73033 11.41102,34.33715 27.06549,39.26531 1.43947,6.97229 4.86583,13.2325 11.03266,18.37995 3.37582,1.33364 6.68826,2.55271 9.95784,3.37932 3.41757,0.68306 50.92212,0.73347 54.44375,0 3.26958,-0.82661 9.514,-2.04568 12.88981,-3.37932 6.16684,-5.14745 9.5932,-11.40766 11.03265,-18.37995 15.65448,-4.92816 22.04341,-30.53498 27.06549,-39.26531 5.02211,-8.73034 -2.96241,-38.97179 -9.51242,-42.22101 11.88083,-15.36791 2.21982,-13.8171 15.96428,-27.14843 17.83093,-17.99442 33.882,-35.98929 40.1664,-53.98372 5.27963,-24.24545 5.70615,-48.20052 2.27546,-71.92406 7.03308,18.05017 9.12235,53.12825 30.0517,43.75478 16.25063,-7.27804 25.28656,-7.24485 40.67958,-5.32169 8.75651,1.09401 13.77134,-3.42818 11.54335,-11.34213 -7.33161,-19.55752 -35.73914,-46.00648 -53.88451,-48.62557 -13.69949,-1.55922 -18.15439,0.22607 -27.23205,0.10457 l -0.39892,-14.39255 c 9.19603,4.62498 39.04397,5.63179 51.70447,6.0169 19.18247,-0.4426 32.10159,-4.9039 42.41863,-11.03068 5.89278,-3.55803 11.87953,-7.69535 19.5729,-22.56679 11.68747,-27.52779 -0.18375,-57.06087 -17.39232,-75.768135 -15.38692,-14.883077 -25.34017,-20.810396 -36.27583,-26.49997 10.54602,22.800022 31.93679,46.683385 24.77647,70.072705 -4.84938,15.84059 -17.90738,21.7948 -31.78104,20.13447 -25.20817,-1.14349 -38.89188,-9.41908 -59.10218,-18.10302 -33.08185,-25.91324 -80.3475,-36.97834 -122.37768,-37.6081 -42.03017,0.62976 -89.85169,11.69486 -122.93353,37.6081 -20.21031,8.68394 -33.894014,16.95953 -59.102184,18.10302 -13.87366,1.66033 -26.93167,-4.29388 -31.78105,-20.13447 -7.16032,-23.38932 14.23045,-47.272683 24.77648,-70.072705 z"
         sodipodi:nodetypes="cccccccccscccccsccccccsccccsscccccccccscccccsc" />
    </clipPath>
  </defs>
  <sodipodi:namedview
     id="namedview911"
     pagecolor="#505050"
     bordercolor="#ffffff"
     borderopacity="1"
     inkscape:pageshadow="0"
     inkscape:pageopacity="0"
     inkscape:pagecheckerboard="1"
     showgrid="false"
     inkscape:zoom="1.408"
     inkscape:cx="250"
     inkscape:cy="250"
     inkscape:window-width="1876"
     inkscape:window-height="974"
     inkscape:window-x="20"
     inkscape:window-y="82"
     inkscape:window-maximized="0"
     inkscape:current-layer="layer1"
     showguides="false" />
  <g
     inkscape:groupmode="layer"
     id="layer1"
     inkscape:label="logo Vector"
     style="opacity:1">
    <g
       id="g130059"
       clip-path="url(#clipPath132220)"
       transform="translate(-2.3807692,-27.331501)">
      <path
         id="path43827"
         style="fill:#ffffff;fill-opacity:1;stroke-width:6.3728;stroke-linecap:round;stroke-linejoin:bevel;paint-order:fill markers stroke"
         d="m 178.3418,-40.144531 c 5.14546,2.429807 10.26485,4.920972 15.25,7.664062 6.01559,3.310099 11.90653,6.846187 17.65625,10.597657 5.74971,3.751469 11.35631,7.719841 16.80468,11.8964839 5.44838,4.1766428 10.73805,8.5608673 15.84961,13.1464843 3.67715,3.2987902 7.25848,6.6906565 10.75586,10.1640628 3.49738,3.473406 6.91079,7.029418 10.25391,10.652343 3.34312,3.622926 6.61571,7.313198 9.83008,11.060547 3.21436,3.74735 6.37131,7.551761 9.48242,11.398438 5.85905,7.244307 11.53691,14.660633 17.16016,22.128906 4.15007,0.0456 8.30187,0.138449 12.44921,0.123047 7.80604,-0.02899 15.60757,-0.174366 23.4004,-0.462891 7.79282,-0.288524 15.57657,-0.721403 23.35156,-1.326171 7.77498,-0.604769 15.54045,-1.381657 23.29297,-2.359376 5.40535,-0.681703 10.798,-1.462373 16.17382,-2.341796 5.37583,-0.879424 10.73431,-1.857292 16.07422,-2.931641 5.33991,-1.074349 10.66137,-2.245239 15.95899,-3.511719 5.29761,-1.26648 10.57137,-2.628168 15.82031,-4.083984 5.24894,-1.455816 10.47214,-3.00608 15.66602,-4.648438 5.19387,-1.642357 10.35975,-3.377021 15.49218,-5.203125 5.13244,-1.826103 10.23227,-3.742944 15.29688,-5.75 5.03257,-1.99436 10.02896,-4.07972 14.98828,-6.25 v -69.96289 z" />
      <path
         id="path129610"
         style="fill:#000000;fill-opacity:1;stroke-width:6.3728;stroke-linecap:round;stroke-linejoin:bevel;paint-order:fill markers stroke;filter:url(#filter129792)"
         d="m 301.38477,68.564453 c 0.34856,0.462929 0.71644,0.907646 1.06445,1.371094 5.96224,7.940086 11.84567,15.953404 17.75195,23.939453 5.90628,7.98605 11.83627,15.94415 17.89063,23.77539 6.05435,7.83124 12.23417,15.53605 18.64062,23.01172 3.20323,3.73783 6.46151,7.418 9.79102,11.0293 3.32951,3.61129 6.72964,7.15362 10.21094,10.61328 3.48129,3.45966 7.04454,6.83621 10.70312,10.11914 3.65858,3.28293 7.41206,6.47163 11.27344,9.55273 2.96555,2.3663 5.98971,4.65831 9.0664,6.875 3.0767,2.21669 6.20691,4.35724 9.38672,6.42188 2.37927,1.54484 4.81303,3.00241 7.2461,4.46094 1.74571,-0.46297 3.52607,-0.78798 5.26172,-1.28711 6.69032,-1.92399 13.30366,-4.11626 19.8164,-6.57422 6.51274,-2.45796 12.92411,-5.18144 19.21484,-8.16797 6.29074,-2.98654 12.45507,-6.23387 18.47657,-9.72656 6.0215,-3.49269 11.90109,-7.23139 17.62109,-11.19922 1.56119,-1.08296 3.01163,-2.31671 4.54883,-3.4336 V 29.818359 c -4.95932,2.17028 -9.95571,4.25564 -14.98828,6.25 -5.06461,2.007056 -10.16444,3.923897 -15.29688,5.75 -5.13243,1.826104 -10.29831,3.560768 -15.49218,5.203125 -5.19388,1.642358 -10.41708,3.192622 -15.66602,4.648438 -5.24894,1.455816 -10.5227,2.817504 -15.82031,4.083984 -5.29762,1.26648 -10.61908,2.43737 -15.95899,3.511719 -5.33991,1.074349 -10.69839,2.052217 -16.07422,2.931641 -5.37582,0.879423 -10.76847,1.660093 -16.17382,2.341796 -7.75252,0.977719 -15.51799,1.754607 -23.29297,2.359376 -7.77499,0.604768 -15.55874,1.037647 -23.35156,1.326171 -7.79283,0.288525 -15.59436,0.433902 -23.4004,0.462891 -4.14734,0.0154 -8.29914,-0.07744 -12.44921,-0.123047 z" />
      <path
         id="path43831"
         style="fill:#5c69ff;fill-opacity:1;stroke-width:6.3728;stroke-linecap:round;stroke-linejoin:bevel;paint-order:fill markers stroke"
         d="m 301.38477,68.564453 c 0.34856,0.462929 0.71644,0.907646 1.06445,1.371094 5.96224,7.940086 11.84567,15.953404 17.75195,23.939453 5.90628,7.98605 11.83627,15.94415 17.89063,23.77539 6.05435,7.83124 12.23417,15.53605 18.64062,23.01172 3.20323,3.73783 6.46151,7.418 9.79102,11.0293 3.32951,3.61129 6.72964,7.15362 10.21094,10.61328 3.48129,3.45966 7.04454,6.83621 10.70312,10.11914 3.65858,3.28293 7.41206,6.47163 11.27344,9.55273 2.96555,2.3663 5.98971,4.65831 9.0664,6.875 3.0767,2.21669 6.20691,4.35724 9.38672,6.42188 2.37927,1.54484 4.81303,3.00241 7.2461,4.46094 1.74571,-0.46297 3.52607,-0.78798 5.26172,-1.28711 6.69032,-1.92399 13.30366,-4.11626 19.8164,-6.57422 6.51274,-2.45796 12.92411,-5.18144 19.21484,-8.16797 6.29074,-2.98654 12.45507,-6.23387 18.47657,-9.72656 6.0215,-3.49269 11.90109,-7.23139 17.62109,-11.19922 1.56119,-1.08296 3.01163,-2.31671 4.54883,-3.4336 V 29.818359 c -4.95932,2.17028 -9.95571,4.25564 -14.98828,6.25 -5.06461,2.007056 -10.16444,3.923897 -15.29688,5.75 -5.13243,1.826104 -10.29831,3.560768 -15.49218,5.203125 -5.19388,1.642358 -10.41708,3.192622 -15.66602,4.648438 -5.24894,1.455816 -10.5227,2.817504 -15.82031,4.083984 -5.29762,1.26648 -10.61908,2.43737 -15.95899,3.511719 -5.33991,1.074349 -10.69839,2.052217 -16.07422,2.931641 -5.37582,0.879423 -10.76847,1.660093 -16.17382,2.341796 -7.75252,0.977719 -15.51799,1.754607 -23.29297,2.359376 -7.77499,0.604768 -15.55874,1.037647 -23.35156,1.326171 -7.79283,0.288525 -15.59436,0.433902 -23.4004,0.462891 -4.14734,0.0154 -8.29914,-0.07744 -12.44921,-0.123047 z" />
      <path
         id="path129796"
         style="fill:#000000;fill-opacity:1;stroke-width:6.3728;stroke-linecap:round;stroke-linejoin:bevel;paint-order:fill markers stroke;filter:url(#filter129798)"
         d="M 178.3418,-40.144531 H -4.3847656 v 99.324219 c 6.664329,-0.02955 13.3277988,-0.157297 19.9921876,-0.148438 20.122722,0.02675 40.246022,0.228639 60.365234,0.605469 20.119213,0.376829 40.234144,0.927502 60.343754,1.654297 20.10961,0.726794 40.21272,1.628432 60.30664,2.705078 15.60547,0.836151 31.23718,1.776958 46.87304,2.595703 15.63587,0.818745 31.277,1.515603 46.90625,1.863281 3.66273,0.08148 7.32132,0.06915 10.98243,0.109375 -5.62325,-7.468273 -11.30111,-14.884599 -17.16016,-22.128906 -3.11111,-3.846677 -6.26806,-7.651088 -9.48242,-11.398438 -3.21437,-3.747349 -6.48696,-7.437621 -9.83008,-11.060547 -3.34312,-3.622925 -6.75653,-7.178937 -10.25391,-10.652343 -3.49738,-3.4734063 -7.07871,-6.8652726 -10.75586,-10.1640628 -5.11156,-4.585617 -10.40123,-8.9698415 -15.84961,-13.1464843 -5.44837,-4.1766429 -11.05497,-8.1450149 -16.80468,-11.8964839 -5.74972,-3.75147 -11.64066,-7.287558 -17.65625,-10.597657 -4.98515,-2.74309 -10.10454,-5.234255 -15.25,-7.664062 z" />
      <path
         id="path43829"
         style="fill:#25ba52;fill-opacity:1;stroke-width:6.3728;stroke-linecap:round;stroke-linejoin:bevel;paint-order:fill markers stroke"
         d="M 178.3418,-40.144531 H -4.3847656 v 99.324219 c 6.664329,-0.02955 13.3277988,-0.157297 19.9921876,-0.148438 20.122722,0.02675 40.246022,0.228639 60.365234,0.605469 20.119213,0.376829 40.234144,0.927502 60.343754,1.654297 20.10961,0.726794 40.21272,1.628432 60.30664,2.705078 15.60547,0.836151 31.23718,1.776958 46.87304,2.595703 15.63587,0.818745 31.277,1.515603 46.90625,1.863281 3.66273,0.08148 7.32132,0.06915 10.98243,0.109375 -5.62325,-7.468273 -11.30111,-14.884599 -17.16016,-22.128906 -3.11111,-3.846677 -6.26806,-7.651088 -9.48242,-11.398438 -3.21437,-3.747349 -6.48696,-7.437621 -9.83008,-11.060547 -3.34312,-3.622925 -6.75653,-7.178937 -10.25391,-10.652343 -3.49738,-3.4734063 -7.07871,-6.8652726 -10.75586,-10.1640628 -5.11156,-4.585617 -10.40123,-8.9698415 -15.84961,-13.1464843 -5.44837,-4.1766429 -11.05497,-8.1450149 -16.80468,-11.8964839 -5.74972,-3.75147 -11.64066,-7.287558 -17.65625,-10.597657 -4.98515,-2.74309 -10.10454,-5.234255 -15.25,-7.664062 z" />
      <path
         id="path129256"
         style="fill:#000000;fill-opacity:1;stroke-width:6.3728;stroke-linecap:round;stroke-linejoin:bevel;paint-order:fill markers stroke;filter:url(#filter129420)"
         d="m 301.38477,68.564453 c -3.66111,-0.04023 -7.3197,-0.0279 -10.98243,-0.109375 C 274.77309,68.1074 259.13196,67.410542 243.49609,66.591797 227.86023,65.773052 212.22852,64.832245 196.62305,63.996094 176.52913,62.919448 156.42602,62.01781 136.31641,61.291016 116.2068,60.564221 96.091869,60.013548 75.972656,59.636719 55.853444,59.259889 35.730144,59.058 15.607422,59.03125 8.9430332,59.022391 2.2795634,59.15014 -4.3847656,59.179688 v 55.343752 l 66.1835936,62.27929 c 2.945991,-1.44007 5.842328,-2.99325 8.84375,-4.29687 2.904628,-1.26158 5.835788,-2.4552 8.792969,-3.56836 2.957181,-1.11316 5.940808,-2.14736 8.951172,-3.0918 3.010363,-0.94444 6.047152,-1.79925 9.111328,-2.55468 3.064173,-0.75543 6.154823,-1.41091 9.273433,-1.95704 4.21244,-0.73766 8.43979,-1.26917 12.67579,-1.61523 4.23599,-0.34606 8.48048,-0.50597 12.72851,-0.5 4.24804,0.006 8.4995,0.17767 12.74805,0.49609 4.24855,0.31842 8.49488,0.78371 12.73242,1.375 4.23754,0.5913 8.46663,1.30823 12.68164,2.13282 4.21501,0.82458 8.41475,1.75708 12.5957,2.77539 8.36192,2.03661 16.64422,4.42013 24.80079,6.99414 8.15656,2.574 16.26109,5.34095 24.35156,8.15039 8.09047,2.80943 16.16773,5.66214 24.27344,8.40625 8.1057,2.74411 16.23914,5.37978 24.4414,7.75781 4.10113,1.18901 8.21886,2.31241 12.35938,3.35352 4.14052,1.0411 8.30406,1.99987 12.49414,2.85546 6.82288,1.39321 13.70143,2.50128 20.61328,3.32813 6.91185,0.82685 13.8561,1.37279 20.8125,1.63867 6.95639,0.26589 13.92434,0.25257 20.88086,-0.0371 6.95651,-0.28968 13.90224,-0.85546 20.81445,-1.69531 6.91221,-0.83985 13.79175,-1.95328 20.61523,-3.33789 5.05329,-1.02541 10.03612,-2.35612 15.01954,-3.67773 -2.43307,-1.45853 -4.86683,-2.9161 -7.2461,-4.46094 -3.17981,-2.06464 -6.31002,-4.20519 -9.38672,-6.42188 -3.07669,-2.21669 -6.10085,-4.5087 -9.0664,-6.875 -3.86138,-3.0811 -7.61486,-6.2698 -11.27344,-9.55273 -3.65858,-3.28293 -7.22183,-6.65948 -10.70312,-10.11914 -3.4813,-3.45966 -6.88143,-7.00199 -10.21094,-10.61328 -3.32951,-3.6113 -6.58779,-7.29147 -9.79102,-11.0293 -6.40645,-7.47567 -12.58627,-15.18048 -18.64062,-23.01172 -6.05436,-7.83124 -11.98435,-15.78934 -17.89063,-23.77539 -5.90628,-7.986049 -11.78971,-15.999367 -17.75195,-23.939453 -0.34801,-0.463448 -0.71589,-0.908165 -1.06445,-1.371094 z" />
      <path
         id="path43833"
         style="fill:#1c7049;fill-opacity:1;stroke-width:6.3728;stroke-linecap:round;stroke-linejoin:bevel;paint-order:fill markers stroke"
         d="m 301.38477,68.564453 c -3.66111,-0.04023 -7.3197,-0.0279 -10.98243,-0.109375 C 274.77309,68.1074 259.13196,67.410542 243.49609,66.591797 227.86023,65.773052 212.22852,64.832245 196.62305,63.996094 176.52913,62.919448 156.42602,62.01781 136.31641,61.291016 116.2068,60.564221 96.091869,60.013548 75.972656,59.636719 55.853444,59.259889 35.730144,59.058 15.607422,59.03125 8.9430332,59.022391 2.2795634,59.15014 -4.3847656,59.179688 v 55.343752 l 66.1835936,62.27929 c 2.945991,-1.44007 5.842328,-2.99325 8.84375,-4.29687 2.904628,-1.26158 5.835788,-2.4552 8.792969,-3.56836 2.957181,-1.11316 5.940808,-2.14736 8.951172,-3.0918 3.010363,-0.94444 6.047152,-1.79925 9.111328,-2.55468 3.064173,-0.75543 6.154823,-1.41091 9.273433,-1.95704 4.21244,-0.73766 8.43979,-1.26917 12.67579,-1.61523 4.23599,-0.34606 8.48048,-0.50597 12.72851,-0.5 4.24804,0.006 8.4995,0.17767 12.74805,0.49609 4.24855,0.31842 8.49488,0.78371 12.73242,1.375 4.23754,0.5913 8.46663,1.30823 12.68164,2.13282 4.21501,0.82458 8.41475,1.75708 12.5957,2.77539 8.36192,2.03661 16.64422,4.42013 24.80079,6.99414 8.15656,2.574 16.26109,5.34095 24.35156,8.15039 8.09047,2.80943 16.16773,5.66214 24.27344,8.40625 8.1057,2.74411 16.23914,5.37978 24.4414,7.75781 4.10113,1.18901 8.21886,2.31241 12.35938,3.35352 4.14052,1.0411 8.30406,1.99987 12.49414,2.85546 6.82288,1.39321 13.70143,2.50128 20.61328,3.32813 6.91185,0.82685 13.8561,1.37279 20.8125,1.63867 6.95639,0.26589 13.92434,0.25257 20.88086,-0.0371 6.95651,-0.28968 13.90224,-0.85546 20.81445,-1.69531 6.91221,-0.83985 13.79175,-1.95328 20.61523,-3.33789 5.05329,-1.02541 10.03612,-2.35612 15.01954,-3.67773 -2.43307,-1.45853 -4.86683,-2.9161 -7.2461,-4.46094 -3.17981,-2.06464 -6.31002,-4.20519 -9.38672,-6.42188 -3.07669,-2.21669 -6.10085,-4.5087 -9.0664,-6.875 -3.86138,-3.0811 -7.61486,-6.2698 -11.27344,-9.55273 -3.65858,-3.28293 -7.22183,-6.65948 -10.70312,-10.11914 -3.4813,-3.45966 -6.88143,-7.00199 -10.21094,-10.61328 -3.32951,-3.6113 -6.58779,-7.29147 -9.79102,-11.0293 -6.40645,-7.47567 -12.58627,-15.18048 -18.64062,-23.01172 -6.05436,-7.83124 -11.98435,-15.78934 -17.89063,-23.77539 -5.90628,-7.986049 -11.78971,-15.999367 -17.75195,-23.939453 -0.34801,-0.463448 -0.71589,-0.908165 -1.06445,-1.371094 z" />
      <path
         id="path129088"
         style="fill:#000000;fill-opacity:1;stroke-width:6.3728;stroke-linecap:round;stroke-linejoin:bevel;paint-order:fill markers stroke;filter:url(#filter129090)"
         d="m -4.3847656,217.41992 c 3.1965566,-2.11339 6.40072,-4.21282 9.5839844,-6.34765 5.2602402,-3.52775 10.5148862,-7.06538 15.8046872,-10.54688 5.289801,-3.48149 10.614205,-6.90823 16.015625,-10.21289 5.40142,-3.30466 10.903039,-6.49515 16.50586,-9.49023 2.708056,-1.44764 5.517458,-2.67235 8.273437,-4.01954 L -4.3847656,114.52344 Z" />
      <path
         id="rect1526"
         style="fill:#5c69ff;fill-opacity:1;stroke-width:6.3728;stroke-linecap:round;stroke-linejoin:bevel;paint-order:fill markers stroke"
         d="m -4.3847656,217.41992 c 3.1965566,-2.11339 6.40072,-4.21282 9.5839844,-6.34765 5.2602402,-3.52775 10.5148862,-7.06538 15.8046872,-10.54688 5.289801,-3.48149 10.614205,-6.90823 16.015625,-10.21289 5.40142,-3.30466 10.903039,-6.49515 16.50586,-9.49023 2.708056,-1.44764 5.517458,-2.67235 8.273437,-4.01954 L -4.3847656,114.52344 Z" />
      <path
         id="path129424"
         style="fill:#000000;fill-opacity:1;stroke-width:6.3728;stroke-linecap:round;stroke-linejoin:bevel;paint-order:fill markers stroke;filter:url(#filter129606)"
         d="m 424.41016,199.73438 c 0.81865,0.49075 1.613,1.02105 2.4375,1.50195 3.2749,1.91016 6.59506,3.74285 9.95703,5.49609 3.36196,1.75324 6.76603,3.4276 10.20703,5.02149 3.441,1.59388 6.91964,3.10697 10.43164,4.53906 3.512,1.43209 7.05588,2.78291 10.63086,4.05078 3.25774,1.15536 6.5479,2.22123 9.85156,3.23828 5.75625,-3.75563 11.48979,-7.54553 17.28906,-11.23437 4.683,-2.9788 9.42417,-5.86389 14.13477,-8.79883 V 159.3457 c -1.5372,1.11689 -2.98764,2.35064 -4.54883,3.4336 -5.72,3.96783 -11.59959,7.70653 -17.62109,11.19922 -6.0215,3.49269 -12.18583,6.74002 -18.47657,9.72656 -6.29073,2.98653 -12.7021,5.71001 -19.21484,8.16797 -6.51274,2.45796 -13.12608,4.65023 -19.8164,6.57422 -1.73565,0.49913 -3.51601,0.82414 -5.26172,1.28711 z" />
      <path
         id="path43835"
         style="fill:#25ba52;fill-opacity:1;stroke-width:6.3728;stroke-linecap:round;stroke-linejoin:bevel;paint-order:fill markers stroke"
         d="m 424.41016,199.73438 c 0.81865,0.49075 1.613,1.02105 2.4375,1.50195 3.2749,1.91016 6.59506,3.74285 9.95703,5.49609 3.36196,1.75324 6.76603,3.4276 10.20703,5.02149 3.441,1.59388 6.91964,3.10697 10.43164,4.53906 3.512,1.43209 7.05588,2.78291 10.63086,4.05078 3.25774,1.15536 6.5479,2.22123 9.85156,3.23828 5.75625,-3.75563 11.48979,-7.54553 17.28906,-11.23437 4.683,-2.9788 9.42417,-5.86389 14.13477,-8.79883 V 159.3457 c -1.5372,1.11689 -2.98764,2.35064 -4.54883,3.4336 -5.72,3.96783 -11.59959,7.70653 -17.62109,11.19922 -6.0215,3.49269 -12.18583,6.74002 -18.47657,9.72656 -6.29073,2.98653 -12.7021,5.71001 -19.21484,8.16797 -6.51274,2.45796 -13.12608,4.65023 -19.8164,6.57422 -1.73565,0.49913 -3.51601,0.82414 -5.26172,1.28711 z" />
      <path
         id="path128698"
         style="fill:#000000;fill-opacity:1;stroke-width:6.3728;stroke-linecap:round;stroke-linejoin:bevel;paint-order:fill markers stroke;filter:url(#filter128898)"
         d="m 424.41016,199.73438 c -4.98342,1.32161 -9.96625,2.65232 -15.01954,3.67773 -6.82348,1.38461 -13.70302,2.49804 -20.61523,3.33789 -6.91221,0.83985 -13.85794,1.40563 -20.81445,1.69531 -6.95652,0.28968 -13.92447,0.303 -20.88086,0.0371 -6.9564,-0.26588 -13.90065,-0.81182 -20.8125,-1.63867 -6.91185,-0.82685 -13.7904,-1.93492 -20.61328,-3.32813 -4.19008,-0.85559 -8.35362,-1.81436 -12.49414,-2.85546 -4.14052,-1.04111 -8.25825,-2.16451 -12.35938,-3.35352 -8.20226,-2.37803 -16.3357,-5.0137 -24.4414,-7.75781 -8.10571,-2.74411 -16.18297,-5.59682 -24.27344,-8.40625 -8.09047,-2.80944 -16.195,-5.57639 -24.35156,-8.15039 -8.15657,-2.57401 -16.43887,-4.95753 -24.80079,-6.99414 -4.18095,-1.01831 -8.38069,-1.95081 -12.5957,-2.77539 -4.21501,-0.82459 -8.4441,-1.54152 -12.68164,-2.13282 -4.23754,-0.59129 -8.48387,-1.05658 -12.73242,-1.375 -4.24855,-0.31842 -8.50001,-0.49012 -12.74805,-0.49609 -4.24803,-0.006 -8.49252,0.15394 -12.72851,0.5 -4.236,0.34606 -8.46335,0.87757 -12.67579,1.61523 -3.11861,0.54613 -6.20926,1.20161 -9.273433,1.95704 -3.064176,0.75543 -6.100965,1.61024 -9.111328,2.55468 -3.010364,0.94444 -5.993991,1.97864 -8.951172,3.0918 -2.957181,1.11316 -5.888341,2.30678 -8.792969,3.56836 -3.001422,1.30362 -5.897759,2.8568 -8.84375,4.29687 L 230.67578,335.71875 c 2.33561,0.52761 4.6689,1.06687 7.02344,1.48437 3.30666,0.58633 6.63107,1.05972 9.97266,1.40626 3.34158,0.34653 6.70056,0.56616 10.07421,0.64648 3.52959,0.084 7.05106,0.0141 10.56055,-0.19922 3.50949,-0.21331 7.00774,-0.57094 10.48828,-1.05859 3.48055,-0.48765 6.94396,-1.10674 10.38672,-1.84571 3.44276,-0.73897 6.86364,-1.59717 10.25977,-2.56445 3.39612,-0.96728 6.76678,-2.04227 10.10742,-3.21484 3.34064,-1.17257 6.65142,-2.44203 9.92773,-3.79688 3.27631,-1.35485 6.51953,-2.79643 9.72266,-4.31055 3.20313,-1.51411 6.36718,-3.10158 9.48828,-4.75195 6.24221,-3.30074 12.33752,-6.84699 18.32812,-10.56836 5.99061,-3.72136 11.87638,-7.61735 17.69727,-11.61719 11.64178,-7.99967 23.02614,-16.41512 34.48047,-24.67578 9.36654,-6.75497 18.79892,-13.41849 28.29492,-19.99023 9.496,-6.57174 19.05591,-13.0514 28.67774,-19.4375 3.89528,-2.58534 7.84428,-5.08795 11.75976,-7.64258 -3.30366,-1.01705 -6.59382,-2.08292 -9.85156,-3.23828 -3.57498,-1.26787 -7.11886,-2.61869 -10.63086,-4.05078 -3.512,-1.43209 -6.99064,-2.94518 -10.43164,-4.53906 -3.441,-1.59389 -6.84507,-3.26825 -10.20703,-5.02149 -3.36197,-1.75324 -6.68213,-3.58593 -9.95703,-5.49609 -0.8245,-0.4809 -1.61885,-1.0112 -2.4375,-1.50195 z" />
      <path
         id="path43837"
         style="fill:#ffffff;fill-opacity:1;stroke-width:6.3728;stroke-linecap:round;stroke-linejoin:bevel;paint-order:fill markers stroke"
         d="m 424.41016,199.73438 c -4.98342,1.32161 -9.96625,2.65232 -15.01954,3.67773 -6.82348,1.38461 -13.70302,2.49804 -20.61523,3.33789 -6.91221,0.83985 -13.85794,1.40563 -20.81445,1.69531 -6.95652,0.28968 -13.92447,0.303 -20.88086,0.0371 -6.9564,-0.26588 -13.90065,-0.81182 -20.8125,-1.63867 -6.91185,-0.82685 -13.7904,-1.93492 -20.61328,-3.32813 -4.19008,-0.85559 -8.35362,-1.81436 -12.49414,-2.85546 -4.14052,-1.04111 -8.25825,-2.16451 -12.35938,-3.35352 -8.20226,-2.37803 -16.3357,-5.0137 -24.4414,-7.75781 -8.10571,-2.74411 -16.18297,-5.59682 -24.27344,-8.40625 -8.09047,-2.80944 -16.195,-5.57639 -24.35156,-8.15039 -8.15657,-2.57401 -16.43887,-4.95753 -24.80079,-6.99414 -4.18095,-1.01831 -8.38069,-1.95081 -12.5957,-2.77539 -4.21501,-0.82459 -8.4441,-1.54152 -12.68164,-2.13282 -4.23754,-0.59129 -8.48387,-1.05658 -12.73242,-1.375 -4.24855,-0.31842 -8.50001,-0.49012 -12.74805,-0.49609 -4.24803,-0.006 -8.49252,0.15394 -12.72851,0.5 -4.236,0.34606 -8.46335,0.87757 -12.67579,1.61523 -3.11861,0.54613 -6.20926,1.20161 -9.273433,1.95704 -3.064176,0.75543 -6.100965,1.61024 -9.111328,2.55468 -3.010364,0.94444 -5.993991,1.97864 -8.951172,3.0918 -2.957181,1.11316 -5.888341,2.30678 -8.792969,3.56836 -3.001422,1.30362 -5.897759,2.8568 -8.84375,4.29687 L 230.67578,335.71875 c 2.33561,0.52761 4.6689,1.06687 7.02344,1.48437 3.30666,0.58633 6.63107,1.05972 9.97266,1.40626 3.34158,0.34653 6.70056,0.56616 10.07421,0.64648 3.52959,0.084 7.05106,0.0141 10.56055,-0.19922 3.50949,-0.21331 7.00774,-0.57094 10.48828,-1.05859 3.48055,-0.48765 6.94396,-1.10674 10.38672,-1.84571 3.44276,-0.73897 6.86364,-1.59717 10.25977,-2.56445 3.39612,-0.96728 6.76678,-2.04227 10.10742,-3.21484 3.34064,-1.17257 6.65142,-2.44203 9.92773,-3.79688 3.27631,-1.35485 6.51953,-2.79643 9.72266,-4.31055 3.20313,-1.51411 6.36718,-3.10158 9.48828,-4.75195 6.24221,-3.30074 12.33752,-6.84699 18.32812,-10.56836 5.99061,-3.72136 11.87638,-7.61735 17.69727,-11.61719 11.64178,-7.99967 23.02614,-16.41512 34.48047,-24.67578 9.36654,-6.75497 18.79892,-13.41849 28.29492,-19.99023 9.496,-6.57174 19.05591,-13.0514 28.67774,-19.4375 3.89528,-2.58534 7.84428,-5.08795 11.75976,-7.64258 -3.30366,-1.01705 -6.59382,-2.08292 -9.85156,-3.23828 -3.57498,-1.26787 -7.11886,-2.61869 -10.63086,-4.05078 -3.512,-1.43209 -6.99064,-2.94518 -10.43164,-4.53906 -3.441,-1.59389 -6.84507,-3.26825 -10.20703,-5.02149 -3.36197,-1.75324 -6.68213,-3.58593 -9.95703,-5.49609 -0.8245,-0.4809 -1.61885,-1.0112 -2.4375,-1.50195 z" />
      <path
         id="path128494"
         style="fill:#030000;fill-opacity:1;stroke-width:6.3728;stroke-linecap:round;stroke-linejoin:bevel;paint-order:fill markers stroke;filter:url(#filter128496)"
         d="m -4.3847656,233.20508 c 1.3045497,0.92367 2.5734089,1.89086 3.91015622,2.77344 2.72775128,1.80098 5.51946728,3.51819 8.36132818,5.1582 2.8418612,1.64001 5.7329312,3.20265 8.6621092,4.69531 5.858357,2.98533 11.865236,5.69025 17.91211,8.16797 6.046873,2.47772 12.169074,4.76036 18.326171,6.95117 6.157098,2.19082 12.34833,4.28917 18.53711,6.39649 6.18878,2.10731 12.373705,4.22394 18.515625,6.45117 6.141919,2.22723 12.241296,4.56469 18.257816,7.11523 6.21392,2.63424 12.32352,5.4896 18.37304,8.47266 6.04953,2.98305 12.04015,6.09379 18.01172,9.24414 5.97158,3.15035 11.92421,6.34043 17.9043,9.47656 5.98008,3.13613 11.98745,6.21978 18.0625,9.16016 6.07505,2.94038 12.25601,5.74411 18.5332,8.30664 6.2772,2.56253 12.6508,4.88413 19.10742,6.85742 3.22831,0.98664 6.47719,1.88585 9.7461,2.68555 0.94125,0.23026 1.89538,0.3882 2.83984,0.60156 L 61.798828,176.80273 c -2.755979,1.34719 -5.565381,2.5719 -8.273437,4.01954 -5.602821,2.99508 -11.10444,6.18557 -16.50586,9.49023 -5.40142,3.30466 -10.725824,6.7314 -16.015625,10.21289 -5.289801,3.4815 -10.544447,7.01913 -15.8046872,10.54688 -3.1832644,2.13483 -6.3874278,4.23426 -9.5839844,6.34765 z" />
      <path
         id="path43853"
         style="fill:#25ba52;fill-opacity:1;stroke-width:6.3728;stroke-linecap:round;stroke-linejoin:bevel;paint-order:fill markers stroke"
         d="m -4.3847656,233.20508 c 1.3045497,0.92367 2.5734089,1.89086 3.91015622,2.77344 2.72775128,1.80098 5.51946728,3.51819 8.36132818,5.1582 2.8418612,1.64001 5.7329312,3.20265 8.6621092,4.69531 5.858357,2.98533 11.865236,5.69025 17.91211,8.16797 6.046873,2.47772 12.169074,4.76036 18.326171,6.95117 6.157098,2.19082 12.34833,4.28917 18.53711,6.39649 6.18878,2.10731 12.373705,4.22394 18.515625,6.45117 6.141919,2.22723 12.241296,4.56469 18.257816,7.11523 6.21392,2.63424 12.32352,5.4896 18.37304,8.47266 6.04953,2.98305 12.04015,6.09379 18.01172,9.24414 5.97158,3.15035 11.92421,6.34043 17.9043,9.47656 5.98008,3.13613 11.98745,6.21978 18.0625,9.16016 6.07505,2.94038 12.25601,5.74411 18.5332,8.30664 6.2772,2.56253 12.6508,4.88413 19.10742,6.85742 3.22831,0.98664 6.47719,1.88585 9.7461,2.68555 0.94125,0.23026 1.89538,0.3882 2.83984,0.60156 L 61.798828,176.80273 c -2.755979,1.34719 -5.565381,2.5719 -8.273437,4.01954 -5.602821,2.99508 -11.10444,6.18557 -16.50586,9.49023 -5.40142,3.30466 -10.725824,6.7314 -16.015625,10.21289 -5.289801,3.4815 -10.544447,7.01913 -15.8046872,10.54688 -3.1832644,2.13483 -6.3874278,4.23426 -9.5839844,6.34765 z" />
      <path
         id="path128326"
         style="fill:#000000;fill-opacity:1;stroke-width:6.3728;stroke-linecap:round;stroke-linejoin:bevel;paint-order:fill markers stroke;filter:url(#filter128328)"
         d="m -4.3847656,345.46094 c 5.22611575,-0.49241 10.4671549,-0.83985 15.7148436,-0.95313 5.655974,-0.12209 11.315566,-0.0229 16.962891,0.29883 5.647324,0.32169 11.283016,0.86579 16.886719,1.63477 5.603702,0.76897 11.176063,1.76267 16.701171,2.98242 3.998812,0.88279 7.958996,1.87701 11.884766,2.96875 3.92577,1.09173 7.816281,2.28215 11.677734,3.55859 7.722908,2.55289 15.327711,5.44937 22.845701,8.59571 7.518,3.14633 14.9511,6.54195 22.33399,10.08789 7.38288,3.54593 14.71562,7.24246 22.0332,10.99414 9.03676,4.63308 18.1138,9.20773 27.16992,13.82421 l 92.3125,-24.71874 -41.46289,-39.01563 c -0.94446,-0.21336 -1.89859,-0.3713 -2.83984,-0.60156 -3.26891,-0.7997 -6.51779,-1.69891 -9.7461,-2.68555 -6.45662,-1.97329 -12.83022,-4.29489 -19.10742,-6.85742 -6.27719,-2.56253 -12.45815,-5.36626 -18.5332,-8.30664 -6.07505,-2.94038 -12.08242,-6.02403 -18.0625,-9.16016 -5.98009,-3.13613 -11.93272,-6.32621 -17.9043,-9.47656 -5.97157,-3.15035 -11.96219,-6.26109 -18.01172,-9.24414 -6.04952,-2.98306 -12.15912,-5.83842 -18.37304,-8.47266 -6.01652,-2.55054 -12.115897,-4.888 -18.257816,-7.11523 -6.14192,-2.22723 -12.326845,-4.34386 -18.515625,-6.45117 -6.18878,-2.10732 -12.380012,-4.20567 -18.53711,-6.39649 C 46.630012,258.76036 40.507811,256.47772 34.460938,254 c -6.046874,-2.47772 -12.053753,-5.18264 -17.91211,-8.16797 -2.929178,-1.49266 -5.820248,-3.0553 -8.6621092,-4.69531 -2.8418609,-1.64001 -5.6335769,-3.35722 -8.36132818,-5.1582 -1.33674732,-0.88258 -2.60560652,-1.84977 -3.91015622,-2.77344 z" />
      <path
         id="path43851"
         style="fill:#5c69ff;fill-opacity:1;stroke-width:6.3728;stroke-linecap:round;stroke-linejoin:bevel;paint-order:fill markers stroke"
         d="m -4.3847656,345.46094 c 5.22611575,-0.49241 10.4671549,-0.83985 15.7148436,-0.95313 5.655974,-0.12209 11.315566,-0.0229 16.962891,0.29883 5.647324,0.32169 11.283016,0.86579 16.886719,1.63477 5.603702,0.76897 11.176063,1.76267 16.701171,2.98242 3.998812,0.88279 7.958996,1.87701 11.884766,2.96875 3.92577,1.09173 7.816281,2.28215 11.677734,3.55859 7.722908,2.55289 15.327711,5.44937 22.845701,8.59571 7.518,3.14633 14.9511,6.54195 22.33399,10.08789 7.38288,3.54593 14.71562,7.24246 22.0332,10.99414 9.03676,4.63308 18.1138,9.20773 27.16992,13.82421 l 92.3125,-24.71874 -41.46289,-39.01563 c -0.94446,-0.21336 -1.89859,-0.3713 -2.83984,-0.60156 -3.26891,-0.7997 -6.51779,-1.69891 -9.7461,-2.68555 -6.45662,-1.97329 -12.83022,-4.29489 -19.10742,-6.85742 -6.27719,-2.56253 -12.45815,-5.36626 -18.5332,-8.30664 -6.07505,-2.94038 -12.08242,-6.02403 -18.0625,-9.16016 -5.98009,-3.13613 -11.93272,-6.32621 -17.9043,-9.47656 -5.97157,-3.15035 -11.96219,-6.26109 -18.01172,-9.24414 -6.04952,-2.98306 -12.15912,-5.83842 -18.37304,-8.47266 -6.01652,-2.55054 -12.115897,-4.888 -18.257816,-7.11523 -6.14192,-2.22723 -12.326845,-4.34386 -18.515625,-6.45117 -6.18878,-2.10732 -12.380012,-4.20567 -18.53711,-6.39649 C 46.630012,258.76036 40.507811,256.47772 34.460938,254 c -6.046874,-2.47772 -12.053753,-5.18264 -17.91211,-8.16797 -2.929178,-1.49266 -5.820248,-3.0553 -8.6621092,-4.69531 -2.8418609,-1.64001 -5.6335769,-3.35722 -8.36132818,-5.1582 -1.33674732,-0.88258 -2.60560652,-1.84977 -3.91015622,-2.77344 z" />
      <path
         id="path127846"
         style="fill:#000000;fill-opacity:1;stroke-width:6.3728;stroke-linecap:round;stroke-linejoin:bevel;paint-order:fill markers stroke;filter:url(#filter127848)"
         d="M -4.3847656,448.78125 179.82617,399.45312 c -9.05612,-4.61648 -18.13316,-9.19113 -27.16992,-13.82421 -7.31758,-3.75168 -14.65032,-7.44821 -22.0332,-10.99414 -7.38289,-3.54594 -14.81599,-6.94156 -22.33399,-10.08789 -7.51799,-3.14634 -15.122793,-6.04282 -22.845701,-8.59571 -3.861453,-1.27644 -7.751964,-2.46686 -11.677734,-3.55859 -3.92577,-1.09174 -7.885954,-2.08596 -11.884766,-2.96875 -5.525108,-1.21975 -11.097469,-2.21345 -16.701171,-2.98242 -5.603703,-0.76898 -11.239395,-1.31308 -16.886719,-1.63477 -5.647325,-0.32169 -11.306917,-0.42092 -16.962891,-0.29883 -5.2476887,0.11328 -10.48872785,0.46072 -15.7148436,0.95313 z" />
      <path
         id="path43849"
         style="fill:#ffffff;fill-opacity:1;stroke-width:6.3728;stroke-linecap:round;stroke-linejoin:bevel;paint-order:fill markers stroke"
         d="M -4.3847656,448.78125 179.82617,399.45312 c -9.05612,-4.61648 -18.13316,-9.19113 -27.16992,-13.82421 -7.31758,-3.75168 -14.65032,-7.44821 -22.0332,-10.99414 -7.38289,-3.54594 -14.81599,-6.94156 -22.33399,-10.08789 -7.51799,-3.14634 -15.122793,-6.04282 -22.845701,-8.59571 -3.861453,-1.27644 -7.751964,-2.46686 -11.677734,-3.55859 -3.92577,-1.09174 -7.885954,-2.08596 -11.884766,-2.96875 -5.525108,-1.21975 -11.097469,-2.21345 -16.701171,-2.98242 -5.603703,-0.76898 -11.239395,-1.31308 -16.886719,-1.63477 -5.647325,-0.32169 -11.306917,-0.42092 -16.962891,-0.29883 -5.2476887,0.11328 -10.48872785,0.46072 -15.7148436,0.95313 z" />
      <path
         id="path128902"
         style="fill:#000000;fill-opacity:1;stroke-width:6.3728;stroke-linecap:round;stroke-linejoin:bevel;paint-order:fill markers stroke;filter:url(#filter128904)"
         d="m 477.92578,223.58203 c 0.32171,0.099 0.63687,0.21869 0.95899,0.31641 3.62991,1.1012 7.2841,2.11867 10.96093,3.05078 3.67684,0.9321 7.37608,1.77849 11.0918,2.53906 2.79201,0.5715 5.60211,1.04609 8.41211,1.51953 v -27.45898 c -4.7106,2.93494 -9.45177,5.82003 -14.13477,8.79883 -5.79927,3.68884 -11.53281,7.47874 -17.28906,11.23437 z" />
      <path
         id="path43839"
         style="fill:#5c69ff;fill-opacity:1;stroke-width:6.3728;stroke-linecap:round;stroke-linejoin:bevel;paint-order:fill markers stroke"
         d="m 477.92578,223.58203 c 0.32171,0.099 0.63687,0.21869 0.95899,0.31641 3.62991,1.1012 7.2841,2.11867 10.96093,3.05078 3.67684,0.9321 7.37608,1.77849 11.0918,2.53906 2.79201,0.5715 5.60211,1.04609 8.41211,1.51953 v -27.45898 c -4.7106,2.93494 -9.45177,5.82003 -14.13477,8.79883 -5.79927,3.68884 -11.53281,7.47874 -17.28906,11.23437 z" />
      <path
         id="path128014"
         style="fill:#000000;fill-opacity:1;stroke-width:6.3728;stroke-linecap:round;stroke-linejoin:bevel;paint-order:fill markers stroke;filter:url(#filter128016)"
         d="m 477.92578,223.58203 c -3.91548,2.55463 -7.86448,5.05724 -11.75976,7.64258 -9.62183,6.3861 -19.18174,12.86576 -28.67774,19.4375 -9.496,6.57174 -18.92838,13.23526 -28.29492,19.99023 -11.45433,8.26066 -22.83869,16.67611 -34.48047,24.67578 -5.82089,3.99984 -11.70666,7.89583 -17.69727,11.61719 -5.9906,3.72137 -12.08591,7.26762 -18.32812,10.56836 -3.1211,1.65037 -6.28515,3.23784 -9.48828,4.75195 -3.20313,1.51412 -6.44635,2.9557 -9.72266,4.31055 -3.27631,1.35485 -6.58709,2.62431 -9.92773,3.79688 -3.34064,1.17257 -6.7113,2.24756 -10.10742,3.21484 -3.39613,0.96728 -6.81701,1.82548 -10.25977,2.56445 -3.44276,0.73897 -6.90617,1.35806 -10.38672,1.84571 -3.48054,0.48765 -6.97879,0.84528 -10.48828,1.05859 -3.50949,0.21331 -7.03096,0.28325 -10.56055,0.19922 -3.37365,-0.0803 -6.73263,-0.29995 -10.07421,-0.64648 -3.34159,-0.34654 -6.666,-0.81993 -9.97266,-1.40626 -2.35454,-0.4175 -4.68783,-0.95676 -7.02344,-1.48437 l 41.46289,39.01563 237.21094,-63.51954 v -80.20703 c -2.81,-0.47344 -5.6201,-0.94803 -8.41211,-1.51953 -3.71572,-0.76057 -7.41496,-1.60696 -11.0918,-2.53906 -3.67683,-0.93211 -7.33102,-1.94958 -10.96093,-3.05078 -0.32212,-0.0977 -0.63728,-0.21737 -0.95899,-0.31641 z" />
      <path
         id="path43841"
         style="fill:#1c7049;fill-opacity:1;stroke-width:6.3728;stroke-linecap:round;stroke-linejoin:bevel;paint-order:fill markers stroke"
         d="m 477.92578,223.58203 c -3.91548,2.55463 -7.86448,5.05724 -11.75976,7.64258 -9.62183,6.3861 -19.18174,12.86576 -28.67774,19.4375 -9.496,6.57174 -18.92838,13.23526 -28.29492,19.99023 -11.45433,8.26066 -22.83869,16.67611 -34.48047,24.67578 -5.82089,3.99984 -11.70666,7.89583 -17.69727,11.61719 -5.9906,3.72137 -12.08591,7.26762 -18.32812,10.56836 -3.1211,1.65037 -6.28515,3.23784 -9.48828,4.75195 -3.20313,1.51412 -6.44635,2.9557 -9.72266,4.31055 -3.27631,1.35485 -6.58709,2.62431 -9.92773,3.79688 -3.34064,1.17257 -6.7113,2.24756 -10.10742,3.21484 -3.39613,0.96728 -6.81701,1.82548 -10.25977,2.56445 -3.44276,0.73897 -6.90617,1.35806 -10.38672,1.84571 -3.48054,0.48765 -6.97879,0.84528 -10.48828,1.05859 -3.50949,0.21331 -7.03096,0.28325 -10.56055,0.19922 -3.37365,-0.0803 -6.73263,-0.29995 -10.07421,-0.64648 -3.34159,-0.34654 -6.666,-0.81993 -9.97266,-1.40626 -2.35454,-0.4175 -4.68783,-0.95676 -7.02344,-1.48437 l 41.46289,39.01563 237.21094,-63.51954 v -80.20703 c -2.81,-0.47344 -5.6201,-0.94803 -8.41211,-1.51953 -3.71572,-0.76057 -7.41496,-1.60696 -11.0918,-2.53906 -3.67683,-0.93211 -7.33102,-1.94958 -10.96093,-3.05078 -0.32212,-0.0977 -0.63728,-0.21737 -0.95899,-0.31641 z" />
      <path
         id="path127660"
         style="fill:#000000;fill-opacity:1;stroke-width:6.3728;stroke-linecap:round;stroke-linejoin:bevel;paint-order:fill markers stroke;filter:url(#filter127662)"
         d="m 509.34961,311.21484 -237.21094,63.51954 v 0 l -92.3125,24.71874 c 5.61039,2.85998 11.17336,5.82433 16.83203,8.56446 7.39637,3.58158 14.84625,7.02275 22.38672,10.22851 7.54047,3.20577 15.17141,6.17642 22.92578,8.8125 6.44846,2.19214 12.96707,4.14504 19.54297,5.86719 6.57591,1.72215 13.20805,3.21338 19.88477,4.48242 6.67672,1.26904 13.39753,2.31563 20.14844,3.14844 6.7509,0.83281 13.53163,1.45176 20.33007,1.86524 6.79845,0.41347 13.61424,0.61984 20.4336,0.63085 6.81935,0.011 13.6434,-0.17426 20.45703,-0.54882 6.81363,-0.37456 13.61717,-0.93839 20.39844,-1.68164 6.78126,-0.74326 13.53944,-1.66666 20.26171,-2.76172 8.88861,-1.44796 17.72771,-3.19521 26.49805,-5.23438 8.77034,-2.03916 17.47323,-4.37007 26.08984,-6.98437 8.61662,-2.61431 17.14679,-5.51217 25.57422,-8.68555 8.42744,-3.17338 16.75034,-6.6215 24.95313,-10.33789 0.95012,-0.43047 1.8598,-0.94518 2.80664,-1.38281 z" />
      <path
         id="path43843"
         style="fill:#25ba52;fill-opacity:1;stroke-width:6.3728;stroke-linecap:round;stroke-linejoin:bevel;paint-order:fill markers stroke"
         d="m 509.34961,311.21484 -237.21094,63.51954 v 0 l -92.3125,24.71874 c 5.61039,2.85998 11.17336,5.82433 16.83203,8.56446 7.39637,3.58158 14.84625,7.02275 22.38672,10.22851 7.54047,3.20577 15.17141,6.17642 22.92578,8.8125 6.44846,2.19214 12.96707,4.14504 19.54297,5.86719 6.57591,1.72215 13.20805,3.21338 19.88477,4.48242 6.67672,1.26904 13.39753,2.31563 20.14844,3.14844 6.7509,0.83281 13.53163,1.45176 20.33007,1.86524 6.79845,0.41347 13.61424,0.61984 20.4336,0.63085 6.81935,0.011 13.6434,-0.17426 20.45703,-0.54882 6.81363,-0.37456 13.61717,-0.93839 20.39844,-1.68164 6.78126,-0.74326 13.53944,-1.66666 20.26171,-2.76172 8.88861,-1.44796 17.72771,-3.19521 26.49805,-5.23438 8.77034,-2.03916 17.47323,-4.37007 26.08984,-6.98437 8.61662,-2.61431 17.14679,-5.51217 25.57422,-8.68555 8.42744,-3.17338 16.75034,-6.6215 24.95313,-10.33789 0.95012,-0.43047 1.8598,-0.94518 2.80664,-1.38281 z" />
      <path
         id="path119683"
         style="opacity:0.916877;fill:#000000;fill-opacity:1;stroke-width:6.3728;stroke-linecap:round;stroke-linejoin:bevel;paint-order:fill markers stroke;filter:url(#filter119685)"
         d="m 509.34961,405.43555 c -0.94684,0.43763 -1.85652,0.95234 -2.80664,1.38281 -8.20279,3.71639 -16.52569,7.16451 -24.95313,10.33789 -8.42743,3.17338 -16.9576,6.07124 -25.57422,8.68555 -8.61661,2.6143 -17.3195,4.94521 -26.08984,6.98437 -8.77034,2.03917 -17.60944,3.78642 -26.49805,5.23438 -6.72227,1.09506 -13.48045,2.01846 -20.26171,2.76172 -6.78127,0.74325 -13.58481,1.30708 -20.39844,1.68164 -6.81363,0.37456 -13.63768,0.55984 -20.45703,0.54882 -6.81936,-0.011 -13.63515,-0.21738 -20.4336,-0.63085 -6.79844,-0.41348 -13.57917,-1.03243 -20.33007,-1.86524 -6.75091,-0.83281 -13.47172,-1.8794 -20.14844,-3.14844 -6.67672,-1.26904 -13.30886,-2.76027 -19.88477,-4.48242 -6.5759,-1.72215 -13.09451,-3.67505 -19.54297,-5.86719 -7.75437,-2.63608 -15.38531,-5.60673 -22.92578,-8.8125 -7.54047,-3.20576 -14.99035,-6.64693 -22.38672,-10.22851 -5.65867,-2.74013 -11.22164,-5.70448 -16.83203,-8.56446 L -4.3847656,448.78125 v 61.62891 H 157.2207 c 1.38359,-0.74356 2.74169,-1.53427 4.13282,-2.26368 4.95449,-2.59778 9.95628,-5.10508 15.00195,-7.52148 5.04566,-2.4164 10.13566,-4.74062 15.26562,-6.97266 5.12997,-2.23203 10.30042,-4.37133 15.50782,-6.41601 5.2074,-2.04468 10.45055,-3.99527 15.72851,-5.84961 5.27796,-1.85434 10.58999,-3.61243 15.93164,-5.27344 5.34165,-1.661 10.71286,-3.22477 16.11133,-4.68945 5.39847,-1.46468 10.82502,-2.83034 16.27344,-4.09571 5.44842,-1.26536 10.91866,-2.43107 16.41015,-3.49414 5.4915,-1.06306 11.00356,-2.02308 16.53125,-2.88086 5.5277,-0.85777 11.07188,-1.61223 16.62891,-2.26171 5.55155,-0.64885 11.11454,-1.19298 16.68555,-1.63282 5.571,-0.43983 11.14932,-0.77566 16.73242,-1.00781 5.5831,-0.23214 11.17191,-0.36095 16.75977,-0.38672 5.58785,-0.0258 11.17647,0.0512 16.76171,0.23047 5.58525,0.17929 11.16691,0.46073 16.74219,0.84375 5.57528,0.38302 11.14321,0.86769 16.70117,1.45313 5.55797,0.58544 11.10538,1.27205 16.63867,2.05859 5.5333,0.78654 11.05342,1.67188 16.55469,2.6582 5.50128,0.98632 10.98342,2.07303 16.44531,3.25782 5.4619,1.18478 10.9032,2.46768 16.31836,3.8496 5.41517,1.38193 10.80494,2.86366 16.16602,4.44141 2.04471,0.60175 4.06351,1.28591 6.09961,1.91602 z" />
      <path
         id="path43845"
         style="fill:#1c7049;fill-opacity:1;stroke-width:6.3728;stroke-linecap:round;stroke-linejoin:bevel;paint-order:fill markers stroke"
         d="m 509.34961,405.43555 c -0.94684,0.43763 -1.85652,0.95234 -2.80664,1.38281 -8.20279,3.71639 -16.52569,7.16451 -24.95313,10.33789 -8.42743,3.17338 -16.9576,6.07124 -25.57422,8.68555 -8.61661,2.6143 -17.3195,4.94521 -26.08984,6.98437 -8.77034,2.03917 -17.60944,3.78642 -26.49805,5.23438 -6.72227,1.09506 -13.48045,2.01846 -20.26171,2.76172 -6.78127,0.74325 -13.58481,1.30708 -20.39844,1.68164 -6.81363,0.37456 -13.63768,0.55984 -20.45703,0.54882 -6.81936,-0.011 -13.63515,-0.21738 -20.4336,-0.63085 -6.79844,-0.41348 -13.57917,-1.03243 -20.33007,-1.86524 -6.75091,-0.83281 -13.47172,-1.8794 -20.14844,-3.14844 -6.67672,-1.26904 -13.30886,-2.76027 -19.88477,-4.48242 -6.5759,-1.72215 -13.09451,-3.67505 -19.54297,-5.86719 -7.75437,-2.63608 -15.38531,-5.60673 -22.92578,-8.8125 -7.54047,-3.20576 -14.99035,-6.64693 -22.38672,-10.22851 -5.65867,-2.74013 -11.22164,-5.70448 -16.83203,-8.56446 L -4.3847656,448.78125 v 61.62891 H 157.2207 c 1.38359,-0.74356 2.74169,-1.53427 4.13282,-2.26368 4.95449,-2.59778 9.95628,-5.10508 15.00195,-7.52148 5.04566,-2.4164 10.13566,-4.74062 15.26562,-6.97266 5.12997,-2.23203 10.30042,-4.37133 15.50782,-6.41601 5.2074,-2.04468 10.45055,-3.99527 15.72851,-5.84961 5.27796,-1.85434 10.58999,-3.61243 15.93164,-5.27344 5.34165,-1.661 10.71286,-3.22477 16.11133,-4.68945 5.39847,-1.46468 10.82502,-2.83034 16.27344,-4.09571 5.44842,-1.26536 10.91866,-2.43107 16.41015,-3.49414 5.4915,-1.06306 11.00356,-2.02308 16.53125,-2.88086 5.5277,-0.85777 11.07188,-1.61223 16.62891,-2.26171 5.55155,-0.64885 11.11454,-1.19298 16.68555,-1.63282 5.571,-0.43983 11.14932,-0.77566 16.73242,-1.00781 5.5831,-0.23214 11.17191,-0.36095 16.75977,-0.38672 5.58785,-0.0258 11.17647,0.0512 16.76171,0.23047 5.58525,0.17929 11.16691,0.46073 16.74219,0.84375 5.57528,0.38302 11.14321,0.86769 16.70117,1.45313 5.55797,0.58544 11.10538,1.27205 16.63867,2.05859 5.5333,0.78654 11.05342,1.67188 16.55469,2.6582 5.50128,0.98632 10.98342,2.07303 16.44531,3.25782 5.4619,1.18478 10.9032,2.46768 16.31836,3.8496 5.41517,1.38193 10.80494,2.86366 16.16602,4.44141 2.04471,0.60175 4.06351,1.28591 6.09961,1.91602 z" />
      <path
         id="path107250"
         style="opacity:0.922524;fill:#030000;fill-opacity:0.994197;stroke-width:6.3728;stroke-linecap:round;stroke-linejoin:bevel;paint-order:fill markers stroke;filter:url(#filter108386)"
         d="m 509.34961,476.37305 c -2.0361,-0.63011 -4.0549,-1.31427 -6.09961,-1.91602 -5.36108,-1.57775 -10.75085,-3.05948 -16.16602,-4.44141 -5.41516,-1.38192 -10.85646,-2.66482 -16.31836,-3.8496 -5.46189,-1.18479 -10.94403,-2.2715 -16.44531,-3.25782 -5.50127,-0.98632 -11.02139,-1.87166 -16.55469,-2.6582 -5.53329,-0.78654 -11.0807,-1.47315 -16.63867,-2.05859 -5.55796,-0.58544 -11.12589,-1.07011 -16.70117,-1.45313 -5.57528,-0.38302 -11.15694,-0.66446 -16.74219,-0.84375 -5.58524,-0.17928 -11.17386,-0.25624 -16.76171,-0.23047 -5.58786,0.0258 -11.17667,0.15458 -16.75977,0.38672 -5.5831,0.23215 -11.16142,0.56798 -16.73242,1.00781 -5.57101,0.43984 -11.134,0.98397 -16.68555,1.63282 -5.55703,0.64948 -11.10121,1.40394 -16.62891,2.26171 -5.52769,0.85778 -11.03975,1.8178 -16.53125,2.88086 -5.49149,1.06307 -10.96173,2.22878 -16.41015,3.49414 -5.44842,1.26537 -10.87497,2.63103 -16.27344,4.09571 -5.39847,1.46468 -10.76968,3.02845 -16.11133,4.68945 -5.34165,1.66101 -10.65368,3.4191 -15.93164,5.27344 -5.27796,1.85434 -10.52111,3.80493 -15.72851,5.84961 -5.2074,2.04468 -10.37785,4.18398 -15.50782,6.41601 -5.12996,2.23204 -10.21996,4.55626 -15.26562,6.97266 -5.04567,2.4164 -10.04746,4.9237 -15.00195,7.52148 -1.39113,0.72941 -2.74923,1.52012 -4.13282,2.26368 h 352.12891 z" />
      <path
         id="path43847"
         style="fill:#5c69ff;fill-opacity:1;stroke-width:6.3728;stroke-linecap:round;stroke-linejoin:bevel;paint-order:fill markers stroke"
         d="m 509.34961,476.37305 c -2.0361,-0.63011 -4.0549,-1.31427 -6.09961,-1.91602 -5.36108,-1.57775 -10.75085,-3.05948 -16.16602,-4.44141 -5.41516,-1.38192 -10.85646,-2.66482 -16.31836,-3.8496 -5.46189,-1.18479 -10.94403,-2.2715 -16.44531,-3.25782 -5.50127,-0.98632 -11.02139,-1.87166 -16.55469,-2.6582 -5.53329,-0.78654 -11.0807,-1.47315 -16.63867,-2.05859 -5.55796,-0.58544 -11.12589,-1.07011 -16.70117,-1.45313 -5.57528,-0.38302 -11.15694,-0.66446 -16.74219,-0.84375 -5.58524,-0.17928 -11.17386,-0.25624 -16.76171,-0.23047 -5.58786,0.0258 -11.17667,0.15458 -16.75977,0.38672 -5.5831,0.23215 -11.16142,0.56798 -16.73242,1.00781 -5.57101,0.43984 -11.134,0.98397 -16.68555,1.63282 -5.55703,0.64948 -11.10121,1.40394 -16.62891,2.26171 -5.52769,0.85778 -11.03975,1.8178 -16.53125,2.88086 -5.49149,1.06307 -10.96173,2.22878 -16.41015,3.49414 -5.44842,1.26537 -10.87497,2.63103 -16.27344,4.09571 -5.39847,1.46468 -10.76968,3.02845 -16.11133,4.68945 -5.34165,1.66101 -10.65368,3.4191 -15.93164,5.27344 -5.27796,1.85434 -10.52111,3.80493 -15.72851,5.84961 -5.2074,2.04468 -10.37785,4.18398 -15.50782,6.41601 -5.12996,2.23204 -10.21996,4.55626 -15.26562,6.97266 -5.04567,2.4164 -10.04746,4.9237 -15.00195,7.52148 -1.39113,0.72941 -2.74923,1.52012 -4.13282,2.26368 h 352.12891 z" />
    </g>
  </g>
</svg>
